<?xml version="1.0" encoding="iso-8859-1"?>
<!-- Uploaded to: SVG Repo, www.svgrepo.com, Generator: SVG Repo Mixer Tools -->
<svg fill="#613324" height="800px" width="800px" version="1.1" id="Layer_1" xmlns="http://www.w3.org/2000/svg" xmlns:xlink="http://www.w3.org/1999/xlink" 
	 viewBox="0 0 511.999 511.999" xml:space="preserve">
<g>
	<g>
		<path d="M427.377,0H84.622C63.506,0,46.328,17.178,46.328,38.294v368.818c0,5.405,4.382,9.787,9.787,9.787h18.237v85.313
			c0,5.405,4.382,9.787,9.787,9.787h349.58c5.405,0,9.787-4.382,9.787-9.787v-26.168h12.377c5.405,0,9.787-4.382,9.787-9.787V38.294
			C465.671,17.178,448.492,0,427.377,0z M427.377,19.574c10.322,0,18.719,8.397,18.719,18.719v16.274h-323.18V38.294
			c0-6.795-1.779-13.183-4.895-18.719H427.377z M74.352,45.595v351.729h-8.45V38.294c0-10.322,8.397-18.719,18.719-18.719
			c9.478,0,17.314,7.086,18.535,16.234H84.139C78.734,35.808,74.352,40.19,74.352,45.595z M93.926,492.426V55.382h9.416v410.875
			c0,5.405,4.382,9.787,9.787,9.787h310.801v16.382H93.926z M446.098,456.471h-323.18V74.142h323.18V456.471z"/>
	</g>
</g>
<g>
	<g>
		<path d="M376.134,141.524H192.88c-5.405,0-9.787,4.382-9.787,9.787c0,5.405,4.382,9.787,9.787,9.787h183.255
			c5.405,0,9.787-4.382,9.787-9.787C385.922,145.906,381.54,141.524,376.134,141.524z"/>
	</g>
</g>
<g>
	<g>
		<path d="M376.134,186.884H192.88c-5.405,0-9.787,4.382-9.787,9.787c0,5.405,4.382,9.787,9.787,9.787h183.255
			c5.405,0,9.787-4.382,9.787-9.787C385.922,191.266,381.54,186.884,376.134,186.884z"/>
	</g>
</g>
<g>
	<g>
		<path d="M376.134,277.603H192.88c-5.405,0-9.787,4.382-9.787,9.787s4.382,9.787,9.787,9.787h183.255
			c5.405,0,9.787-4.382,9.787-9.787S381.54,277.603,376.134,277.603z"/>
	</g>
</g>
<g>
	<g>
		<path d="M376.134,322.963H192.88c-5.405,0-9.787,4.382-9.787,9.787s4.382,9.787,9.787,9.787h183.255
			c5.405,0,9.787-4.382,9.787-9.787S381.54,322.963,376.134,322.963z"/>
	</g>
</g>
<g>
	<g>
		<path d="M376.134,368.323H192.88c-5.405,0-9.787,4.382-9.787,9.787s4.382,9.787,9.787,9.787h183.255
			c5.405,0,9.787-4.382,9.787-9.787S381.54,368.323,376.134,368.323z"/>
	</g>
</g>
<g>
	<g>
		<path d="M376.134,232.244H192.88c-5.405,0-9.787,4.382-9.787,9.787s4.382,9.787,9.787,9.787h183.255
			c5.405,0,9.787-4.382,9.787-9.787S381.54,232.244,376.134,232.244z"/>
	</g>
</g>
</svg>