<?xml version="1.0" standalone="no"?>
<!DOCTYPE svg PUBLIC "-//W3C//DTD SVG 20010904//EN"
 "http://www.w3.org/TR/2001/REC-SVG-20010904/DTD/svg10.dtd">
<svg version="1.0" xmlns="http://www.w3.org/2000/svg"
 width="260.000000pt" height="260.000000pt" viewBox="0 0 260.000000 260.000000"
 preserveAspectRatio="xMidYMid meet">
<metadata>
Created by potrace 1.14, written by Peter Selinger 2001-2017
</metadata>
<g transform="translate(0.000000,260.000000) scale(0.100000,-0.100000)"
fill="#000000" stroke="none">
<path d="M685 2027 c-61 -24 -83 -48 -95 -103 -8 -37 24 -1199 35 -1281 11
-74 68 -123 145 -123 88 0 137 42 151 128 7 48 -26 1217 -36 1262 -12 53 -28
80 -59 99 -41 25 -104 33 -141 18z"/>
<path d="M1405 1891 c-223 -57 -341 -193 -338 -391 1 -86 35 -161 97 -218 84
-77 168 -106 441 -153 89 -15 166 -49 188 -82 67 -102 -7 -213 -160 -239 -136
-23 -255 20 -312 112 -51 83 -126 112 -191 73 -69 -40 -67 -155 5 -249 33 -43
122 -100 197 -126 88 -31 342 -33 433 -4 139 44 233 116 281 213 26 53 28 68
29 168 0 105 -1 113 -31 165 -65 115 -164 161 -450 210 -127 22 -200 49 -236
87 -18 20 -23 35 -23 77 1 68 28 106 97 136 45 19 65 22 142 18 107 -5 148
-25 192 -91 66 -98 108 -121 185 -98 70 21 91 94 51 184 -77 175 -351 270
-597 208z"/>
</g>
</svg>
